<svg width="28" height="28" viewBox="0 0 28 28" fill="none" xmlns="http://www.w3.org/2000/svg">
<circle cx="14" cy="14" r="14" fill="#53CE76"/>
<path d="M13.3435 4.47937C13.812 4.77718 14.1362 5.22911 14.5347 5.60183C14.671 5.72893 14.8024 5.84744 14.9885 5.88674C15.1322 5.86463 15.2108 5.94814 15.2851 6.0556C15.8093 6.77866 16.289 7.53308 16.7213 8.31463C16.8189 8.49393 16.9147 8.66955 17.0713 8.80586C17.2284 9.12482 17.4073 9.43256 17.6067 9.72691C17.7692 9.97649 17.8272 10.2799 17.7682 10.5718C17.7191 10.8721 17.6792 11.1742 17.6601 11.4788C17.5893 11.5881 17.5555 11.7172 17.5637 11.8472C17.5539 12.315 17.5003 12.7808 17.4035 13.2386C17.3964 13.2787 17.3796 13.3164 17.3545 13.3486C17.3295 13.3807 17.297 13.4062 17.2598 13.4228C17.1622 13.4596 17.0829 13.4117 17.0031 13.3663C16.8938 13.2859 16.8803 13.1569 16.8521 13.0409C16.6844 12.3243 16.445 11.6286 16.2552 10.9175C16.1793 10.599 16.0609 10.2921 15.9034 10.0051C15.6694 9.60534 15.2396 9.50034 14.8558 9.75946C14.5427 9.97314 14.3591 10.2734 14.3646 10.6627C14.3763 11.2767 14.4506 11.8834 14.5065 12.4925C14.5679 13.1526 14.6262 13.8139 14.6587 14.4752C14.7238 15.7801 14.9351 17.0358 15.4662 18.2503C16.0139 19.5024 16.4701 20.7949 16.962 22.0715C16.9922 22.1475 17.0046 22.2294 16.9982 22.3109C17.0185 22.5805 16.7827 22.6321 16.6224 22.7408C16.2282 22.9993 16.2282 22.9999 16.4548 23.4027C17.0774 24.508 17.7074 25.6132 18.3276 26.7222C18.4142 26.8769 18.5351 27.0372 18.4185 27.2337C17.8947 27.5536 17.3022 27.6813 16.7139 27.7752C15.5796 27.9553 14.43 28.0202 13.2827 27.9687C12.1529 27.9195 11.0353 27.7802 9.9583 27.4093C9.82628 27.3638 9.68566 27.3178 9.6083 27.1821C9.54137 27.0034 9.65005 26.8659 9.72742 26.7277C10.3607 25.6016 10.9962 24.4773 11.634 23.3548C11.8237 23.0214 11.8096 22.9864 11.4958 22.7764C11.3221 22.6591 11.0537 22.6174 11.0599 22.3214C11.0543 22.2189 11.0742 22.1166 11.1176 22.0236C11.5345 20.9699 11.9515 19.9156 12.3518 18.8558C12.5686 18.2829 12.8203 17.7253 13.0199 17.1445C13.2833 16.3775 13.3453 15.5854 13.3822 14.7921C13.4436 13.5573 13.5872 12.3317 13.6849 11.1005C13.715 10.7198 13.7168 10.3483 13.4841 10.0106C13.1224 9.48437 12.4513 9.49665 12.1332 10.0468C11.9876 10.2938 11.8803 10.5615 11.8151 10.8408C11.6395 11.5979 11.3552 12.3237 11.2011 13.0863C11.1661 13.2564 11.1483 13.5069 10.9088 13.4891C10.6908 13.4725 10.6411 13.2435 10.5944 13.0531C10.5906 13.0329 10.5883 13.0123 10.5877 12.9917C10.5533 12.1935 10.39 11.4131 10.3003 10.6228C10.249 10.2798 10.3204 9.92977 10.5017 9.63419C11.125 8.60384 11.7648 7.58455 12.4101 6.56893C12.5526 6.34481 12.7086 6.1299 12.8658 5.91621C13.1206 5.59144 13.25 5.18583 13.2305 4.77349C13.2225 4.66051 13.2372 4.55428 13.3435 4.47937Z" fill="#008442"/>
<path d="M27.7561 15.6732L27.8175 15.726C27.9747 16.0288 27.8126 16.3223 27.7794 16.6152C27.7266 17.091 27.5725 17.5491 27.4509 18.0115C27.4258 18.1343 27.3429 18.2423 27.3453 18.3744C27.3275 18.4358 27.3244 18.4972 27.3097 18.5555C27.1129 18.9804 26.9412 19.4165 26.7958 19.8616C26.4178 20.6271 25.99 21.367 25.5149 22.0764C25.4383 22.1553 25.3726 22.2441 25.3196 22.3404C25.2459 22.4385 25.1782 22.5411 25.117 22.6474C25.0547 22.7411 24.9877 22.8315 24.9162 22.9182C24.7944 22.9974 24.6871 23.0972 24.5993 23.213C24.578 23.2347 24.5518 23.2511 24.5228 23.2606C24.4939 23.2701 24.463 23.2725 24.4329 23.2676C24.164 23.1319 24.0885 22.847 23.9577 22.6143C23.4609 21.7276 22.9574 20.8446 22.4662 19.9549C22.2728 19.6043 22.1997 19.5865 21.8472 19.7909C21.7079 19.8714 21.5746 19.9752 21.399 19.961C21.0668 19.8892 20.9729 19.5742 20.785 19.3556C20.3951 18.9049 20.333 18.3879 20.4043 17.8101C20.4915 17.1027 20.5105 16.3867 20.5596 15.6745C20.6511 14.3623 20.7039 13.0476 20.847 11.7385C20.9219 11.0489 20.7242 10.4005 20.4116 9.79384C20.0518 9.09752 19.4973 8.54489 19.0061 7.94621C18.3853 7.1891 17.7977 6.40559 17.2008 5.62945C17.0099 5.38384 16.7643 5.16647 16.6654 4.8527C16.6808 4.75936 16.6402 4.63594 16.7882 4.61261C18.198 6.01957 19.6077 7.42653 21.0171 8.83349C23.1183 10.9359 25.2179 13.04 27.3158 15.1458C27.4024 15.2323 27.4816 15.3257 27.5615 15.4159C27.6112 15.513 27.7094 15.5744 27.7561 15.6732Z" fill="#008442"/>
<path d="M13.3435 4.47938C13.4779 5.09341 13.2765 5.60736 12.9198 6.10657C12.0485 7.32543 11.3055 8.62841 10.5171 9.90131C10.3783 10.126 10.4145 10.3459 10.4409 10.5767C10.53 11.3658 10.6915 12.1462 10.7344 12.9414C10.7753 13.2446 10.7453 13.5532 10.6466 13.8428C9.88461 16.0343 9.13181 18.2295 8.35444 20.416C8.31698 20.521 8.28935 20.6322 8.20953 20.7175C8.18465 20.7394 8.15466 20.7546 8.12233 20.7617C7.63847 20.6426 7.23873 20.3571 6.8261 20.0974C6.79049 20.0763 6.7622 20.0448 6.74507 20.0071C6.72794 19.9695 6.72279 19.9274 6.73031 19.8867C6.98207 19.5146 7.24365 19.1499 7.48128 18.7692C7.63847 18.5168 7.54268 18.227 7.52794 17.9581C7.43338 16.469 7.32716 14.9806 7.22093 13.4928C7.17979 12.923 7.11777 12.3544 7.07725 11.7839C6.99926 10.6946 7.37321 9.74903 8.0597 8.93175C9.499 7.21982 10.8425 5.43175 12.1915 3.65105C12.3082 3.49631 12.3985 3.46684 12.56 3.59517C12.8651 3.85245 13.1636 4.11157 13.3435 4.47938Z" fill="#FECCBD"/>
<path d="M16.7827 4.81097C17.4741 5.79773 18.2367 6.72922 18.9815 7.67483C19.3543 8.14703 19.7608 8.59588 20.1236 9.07299C20.7739 9.93264 21.0987 10.8838 20.9686 11.9897C20.8574 12.931 20.8261 13.8821 20.7616 14.829C20.6793 16.0208 20.6014 17.2133 20.516 18.4051C20.5011 18.5681 20.5466 18.7309 20.6437 18.8626C20.8279 19.1211 20.9931 19.39 21.1675 19.654C21.2289 19.7474 21.2829 19.8487 21.4045 19.8788C21.4168 19.974 21.3622 20.0317 21.2903 20.0783C20.8709 20.3491 20.427 20.5782 19.9898 20.8152C19.95 20.8389 19.9051 20.8525 19.8589 20.855C19.8127 20.8574 19.7666 20.8486 19.7245 20.8293C19.6017 20.7759 19.5458 20.677 19.517 20.5475C19.3101 19.6197 19.0933 18.6943 18.8858 17.7665C18.6647 16.7791 18.4406 15.7918 18.2042 14.8075C17.9985 13.9527 17.8308 13.0882 17.6135 12.2365C17.5465 11.9725 17.5871 11.6961 17.522 11.4321C17.5441 11.1988 17.5355 10.9568 17.5944 10.7333C17.7093 10.3035 17.6092 9.94001 17.3488 9.58817C17.1812 9.36036 17.0627 9.09694 16.9227 8.84825C16.5782 7.96097 16.4204 7.02334 16.1908 6.10536C16.0121 5.39185 15.8555 4.67281 15.6866 3.95624C15.6535 3.81562 15.5749 3.65536 15.7407 3.53439C15.9439 3.77264 16.1975 3.96422 16.367 4.23501C16.5322 4.41124 16.6893 4.58746 16.7827 4.81097Z" fill="#FEBDA9"/>
<path d="M6.73031 19.8892C7.17119 20.1815 7.67101 20.3743 8.09224 20.6991C8.23224 20.8342 8.16531 20.9853 8.11434 21.1289C7.67838 22.349 7.28233 23.5851 6.82487 24.796C6.75671 24.9802 6.69408 25.1607 6.64066 25.3486C6.60382 25.4757 6.57312 25.6083 6.4368 25.6734C6.2704 25.7225 6.17645 25.5887 6.06347 25.515C5.579 25.2006 5.14242 24.8187 4.68373 24.4711C4.60688 24.3695 4.51614 24.2792 4.41417 24.2028C4.34601 24.1297 4.26987 24.064 4.20417 23.9879C4.07719 23.8279 3.93533 23.6803 3.78049 23.547C3.63189 23.4138 3.57049 23.2787 3.67487 23.0951C4.3325 21.9247 4.99321 20.7556 5.64408 19.5822C5.74847 19.3937 5.84549 19.4084 6.00514 19.5054C6.24277 19.6436 6.48838 19.7615 6.73031 19.8892Z" fill="#FEFEFE"/>
<path d="M15.7431 3.53745C16.1259 5.16055 16.5078 6.78365 16.8889 8.40675C16.9227 8.55104 17.0068 8.69534 16.9251 8.85069C16.4093 8.04508 15.8934 7.24008 15.3772 6.43569C15.2543 6.2478 15.1186 6.06727 14.9885 5.88736C14.3357 4.81587 14.7613 4.10666 15.6129 3.52762C15.6559 3.49815 15.7038 3.48034 15.7431 3.53745Z" fill="#FECCBD"/>
<path d="M16.7827 4.81096C16.5935 4.66293 16.4502 4.46427 16.3694 4.23807C16.5536 4.31421 16.6691 4.46465 16.7882 4.61263L16.7827 4.81096Z" fill="#41948E"/>
<path d="M27.7561 15.6732C27.707 15.6474 27.6643 15.6109 27.6311 15.5663C27.598 15.5218 27.5752 15.4704 27.5645 15.416C27.6456 15.4884 27.7764 15.524 27.7561 15.6732Z" fill="#47877A"/>
<path d="M17.5226 11.4346C17.7744 11.9111 17.8143 12.4471 17.9383 12.958C18.3024 14.4636 18.6414 15.976 18.9822 17.4859C19.2087 18.4794 19.428 19.4747 19.6484 20.4695C19.673 20.5788 19.6785 20.6942 19.7865 20.763C19.7966 20.7843 19.8005 20.808 19.7979 20.8314C19.7953 20.8548 19.7863 20.877 19.7718 20.8956C19.4648 21.1676 19.0896 21.3359 18.739 21.5385C18.2816 21.8032 17.8229 22.0666 17.3562 22.3159C17.2193 22.389 17.0842 22.5191 16.9123 22.384C16.3332 20.9018 15.7622 19.4164 15.1727 17.9384C14.8375 17.127 14.636 16.2667 14.5758 15.3908C14.485 13.8631 14.3339 12.3384 14.2179 10.8119C14.1724 10.2145 14.415 9.78589 14.8933 9.55501C15.3084 9.35484 15.6676 9.43221 15.9482 9.80063C16.3013 10.2612 16.3737 10.8328 16.5377 11.3652C16.733 11.9983 16.8987 12.6399 17.0774 13.2779C17.1493 13.2865 17.0842 13.456 17.215 13.3958C17.2968 12.8419 17.3787 12.2877 17.4606 11.733C17.4796 11.6335 17.5036 11.534 17.5226 11.4346Z" fill="#FECCBD"/>
<path d="M8.15364 20.6948C8.2353 20.1422 8.47969 19.6442 8.65285 19.1229C9.01697 18.0281 9.41302 16.9431 9.79434 15.8538C10.0809 15.035 10.3674 14.2163 10.654 13.3976C10.7027 13.2521 10.7302 13.1003 10.7357 12.9469C10.8585 13.0869 10.7357 13.2988 10.8916 13.4431C10.9978 13.3817 10.9935 13.265 11.0212 13.1667C11.276 12.2647 11.5284 11.3621 11.7857 10.4607C11.823 10.3341 11.8708 10.2109 11.9287 10.0923C12.1688 9.58999 12.525 9.37999 12.9628 9.47823C13.4221 9.57893 13.8347 10.0616 13.8457 10.5282C13.8605 11.1932 13.7628 11.8515 13.7162 12.5122C13.6443 13.529 13.5271 14.5434 13.4749 15.5609C13.4325 16.391 13.201 17.1623 12.9007 17.9243C12.3137 19.4133 11.7341 20.9054 11.152 22.3963C11.0359 22.5013 10.9199 22.4442 10.8143 22.3853C9.99881 21.9296 9.1889 21.4642 8.37346 21.0086C8.25434 20.9343 8.15241 20.8495 8.15364 20.6948Z" fill="#FEBDA9"/>
<path d="M8.15365 20.6948L11.1508 22.3883C11.3608 22.5725 11.6193 22.6732 11.8575 22.8083C12.0098 22.8949 12.0264 22.9686 11.9404 23.119C11.1884 24.4392 10.4401 25.7627 9.6955 27.0894C9.61199 27.2441 9.49593 27.2834 9.32708 27.2275C9.06857 27.1434 8.83585 26.9967 8.57366 26.9242C7.94539 26.6625 7.34045 26.348 6.76532 25.9841C6.64252 25.8558 6.38339 25.8613 6.38094 25.6071C6.54304 25.157 6.70945 24.7082 6.86602 24.2562C7.27538 23.0691 7.68474 21.8832 8.0941 20.6985L8.15365 20.6948Z" fill="#E8ECF4"/>
<path d="M16.9153 22.384C17.7418 21.9186 18.5685 21.4542 19.3954 20.9908C19.5022 20.9294 19.6158 20.8846 19.7264 20.8324C19.945 20.9011 19.9554 21.1044 19.9929 21.2763C20.2096 22.2704 20.4675 23.2553 20.6683 24.2525C20.7911 24.8396 20.9894 25.41 21.0306 26.013C21.0361 26.153 20.9323 26.2009 20.831 26.2537C20.5338 26.4096 20.2409 26.5736 19.9431 26.7271C19.7755 26.7633 19.6324 26.8579 19.4783 26.9267C19.2783 26.9937 19.0827 27.073 18.8925 27.1643C18.7562 27.2257 18.6082 27.273 18.4541 27.2091C18.4281 27.191 18.4059 27.1678 18.389 27.141C17.6368 25.8061 16.8895 24.4693 16.1287 23.1399C16.0213 22.952 16.0673 22.8851 16.235 22.7918C16.4665 22.6628 16.7188 22.5689 16.9153 22.384Z" fill="#FEFEFE"/>
<path d="M17.2186 13.3964C17.2186 13.4461 17.2143 13.5137 17.1486 13.4848C17.0645 13.4486 17.0872 13.3534 17.0811 13.2785L17.2186 13.3964Z" fill="#4B8C81"/>
<path d="M20.9551 26.0455C20.6806 25.1042 20.505 24.142 20.2796 23.1865C20.0954 22.4024 19.9112 21.6171 19.727 20.8323L19.7884 20.7629L21.4045 19.8787C21.6422 19.7418 21.8859 19.6129 22.1162 19.4643C22.2623 19.3703 22.3293 19.4225 22.4011 19.5515C23.0811 20.7697 23.7626 21.9873 24.4458 23.2044C24.5269 23.3456 24.4029 23.4076 24.3304 23.4782C23.9006 23.8994 23.5064 24.3594 23.0231 24.7247C22.9657 24.7899 22.8988 24.8462 22.8248 24.8917C22.3127 25.2644 21.8356 25.6863 21.2811 25.997C21.1737 26.0166 21.0834 26.164 20.9551 26.0455Z" fill="#E8ECF4"/>
</svg>
