<svg width="14" height="16" viewBox="0 0 14 16" fill="none" xmlns="http://www.w3.org/2000/svg">
<path d="M7 9.5C6.7875 9.5 6.60938 9.42812 6.46563 9.28437C6.32188 9.14062 6.25 8.9625 6.25 8.75C6.25 8.5375 6.32188 8.35938 6.46563 8.21563C6.60938 8.07188 6.7875 8 7 8C7.2125 8 7.39062 8.07188 7.53437 8.21563C7.67812 8.35938 7.75 8.5375 7.75 8.75C7.75 8.9625 7.67812 9.14062 7.53437 9.28437C7.39062 9.42812 7.2125 9.5 7 9.5ZM4 9.5C3.7875 9.5 3.60938 9.42812 3.46562 9.28437C3.32187 9.14062 3.25 8.9625 3.25 8.75C3.25 8.5375 3.32187 8.35938 3.46562 8.21563C3.60938 8.07188 3.7875 8 4 8C4.2125 8 4.39062 8.07188 4.53437 8.21563C4.67812 8.35938 4.75 8.5375 4.75 8.75C4.75 8.9625 4.67812 9.14062 4.53437 9.28437C4.39062 9.42812 4.2125 9.5 4 9.5ZM10 9.5C9.7875 9.5 9.60938 9.42812 9.46563 9.28437C9.32188 9.14062 9.25 8.9625 9.25 8.75C9.25 8.5375 9.32188 8.35938 9.46563 8.21563C9.60938 8.07188 9.7875 8 10 8C10.2125 8 10.3906 8.07188 10.5344 8.21563C10.6781 8.35938 10.75 8.5375 10.75 8.75C10.75 8.9625 10.6781 9.14062 10.5344 9.28437C10.3906 9.42812 10.2125 9.5 10 9.5ZM7 12.5C6.7875 12.5 6.60938 12.4281 6.46563 12.2844C6.32188 12.1406 6.25 11.9625 6.25 11.75C6.25 11.5375 6.32188 11.3594 6.46563 11.2156C6.60938 11.0719 6.7875 11 7 11C7.2125 11 7.39062 11.0719 7.53437 11.2156C7.67812 11.3594 7.75 11.5375 7.75 11.75C7.75 11.9625 7.67812 12.1406 7.53437 12.2844C7.39062 12.4281 7.2125 12.5 7 12.5ZM4 12.5C3.7875 12.5 3.60938 12.4281 3.46562 12.2844C3.32187 12.1406 3.25 11.9625 3.25 11.75C3.25 11.5375 3.32187 11.3594 3.46562 11.2156C3.60938 11.0719 3.7875 11 4 11C4.2125 11 4.39062 11.0719 4.53437 11.2156C4.67812 11.3594 4.75 11.5375 4.75 11.75C4.75 11.9625 4.67812 12.1406 4.53437 12.2844C4.39062 12.4281 4.2125 12.5 4 12.5ZM10 12.5C9.7875 12.5 9.60938 12.4281 9.46563 12.2844C9.32188 12.1406 9.25 11.9625 9.25 11.75C9.25 11.5375 9.32188 11.3594 9.46563 11.2156C9.60938 11.0719 9.7875 11 10 11C10.2125 11 10.3906 11.0719 10.5344 11.2156C10.6781 11.3594 10.75 11.5375 10.75 11.75C10.75 11.9625 10.6781 12.1406 10.5344 12.2844C10.3906 12.4281 10.2125 12.5 10 12.5ZM1.375 15.5C1.075 15.5 0.8125 15.3875 0.5875 15.1625C0.3625 14.9375 0.25 14.675 0.25 14.375V2.75C0.25 2.45 0.3625 2.1875 0.5875 1.9625C0.8125 1.7375 1.075 1.625 1.375 1.625H2.59375V0.5H3.8125V1.625H10.1875V0.5H11.4062V1.625H12.625C12.925 1.625 13.1875 1.7375 13.4125 1.9625C13.6375 2.1875 13.75 2.45 13.75 2.75V14.375C13.75 14.675 13.6375 14.9375 13.4125 15.1625C13.1875 15.3875 12.925 15.5 12.625 15.5H1.375ZM1.375 14.375H12.625V6.3125H1.375V14.375Z" fill="#2D5E62"/>
</svg>
