<svg width="15" height="14" viewBox="0 0 15 14" fill="none" xmlns="http://www.w3.org/2000/svg">
<g clip-path="url(#clip0_715_137)">
<path d="M14.4885 10.9723C14.4562 10.9003 14.403 10.8403 14.3361 10.8005C14.2691 10.7606 14.1918 10.7428 14.1146 10.7496C13.5343 10.7496 12.9516 10.7613 12.3712 10.7496C12.2347 10.7421 12.0981 10.7641 11.9704 10.8142C11.8427 10.8642 11.7267 10.9411 11.63 11.04C11.5333 11.1388 11.458 11.2573 11.4091 11.3878C11.3601 11.5183 11.3386 11.6579 11.3458 11.7974C11.3642 12.3952 11.3458 12.9953 11.3458 13.5931C11.337 13.6666 11.3513 13.741 11.3868 13.8055C11.4223 13.8701 11.4771 13.9213 11.5431 13.9518C11.5064 13.9963 11.4605 13.9752 11.4215 13.9752H0.988696C0.856554 13.983 0.724283 13.9622 0.600578 13.9141C0.476873 13.866 0.364532 13.7916 0.270936 13.696C0.177341 13.6003 0.104611 13.4855 0.0575211 13.3591C0.0104312 13.2327 -0.00995028 13.0975 -0.00228463 12.9625C-0.00228463 10.4167 -0.00228463 7.8701 -0.00228463 5.32273C-0.0107314 5.23058 0.000774141 5.13766 0.031416 5.05057C0.0620579 4.96347 0.111084 4.88434 0.175015 4.81878C0.238946 4.75323 0.316215 4.70286 0.401336 4.67124C0.486457 4.63963 0.577345 4.62756 0.667546 4.63587C5.0505 4.63587 9.43422 4.63587 13.8187 4.63587C13.9079 4.62611 13.998 4.63638 14.0829 4.66598C14.1677 4.69558 14.2452 4.74378 14.3099 4.80721C14.3746 4.87064 14.4249 4.94776 14.4574 5.03317C14.4898 5.11858 14.5036 5.21021 14.4977 5.30163C14.4977 7.16137 14.4977 9.01876 14.4977 10.8738C14.4965 10.9068 14.4934 10.9397 14.4885 10.9723Z" fill="#2D5E62"/>
<path d="M11.3573 1.0797C12.0753 1.0797 12.7933 1.0797 13.5136 1.0797C13.7346 1.07078 13.9516 1.14113 14.1272 1.27856C14.3027 1.416 14.4257 1.61185 14.4748 1.83219C14.4905 1.91641 14.4981 2.00198 14.4977 2.08771C14.4977 2.49092 14.4977 2.89178 14.4977 3.29498C14.5055 3.38728 14.4933 3.4802 14.4621 3.56717C14.4309 3.65415 14.3814 3.73307 14.3171 3.79835C14.2528 3.86363 14.1752 3.91369 14.0899 3.94499C14.0046 3.97629 13.9136 3.98807 13.8233 3.97949H0.718007C0.629415 3.98567 0.540419 3.97777 0.454202 3.95605C0.321517 3.92007 0.20436 3.83991 0.121266 3.72825C0.0381716 3.61658 -0.00611518 3.47979 -0.00458649 3.33952C-0.00458649 2.91756 -0.00458649 2.49561 -0.00458649 2.0713C-0.00907111 1.94016 0.0129004 1.80947 0.0599621 1.68738C0.107024 1.56528 0.17817 1.45439 0.268971 1.3616C0.359771 1.26881 0.468284 1.1961 0.587762 1.14801C0.707239 1.09992 0.835123 1.07747 0.963457 1.08205C1.68834 1.08205 2.41093 1.08205 3.13582 1.08205L3.15188 1.1008C3.18205 1.27403 3.19052 1.45049 3.17711 1.6259C3.17711 1.75015 3.17711 1.87673 3.17711 2.00332C3.19088 2.20492 3.30328 2.32917 3.45927 2.32682C3.53679 2.32141 3.60905 2.28481 3.66021 2.22505C3.71138 2.1653 3.73728 2.08725 3.73224 2.00801C3.74601 1.77359 3.73224 1.5251 3.73224 1.28365C3.73224 1.21567 3.71389 1.13831 3.79189 1.09611H6.88182C6.9667 1.13128 6.94605 1.21098 6.94835 1.27662C6.94835 1.4876 6.94835 1.69857 6.94835 1.90721C6.94605 1.98682 6.95771 2.06621 6.98276 2.14163C7.00016 2.19456 7.03349 2.24052 7.07799 2.27294C7.12248 2.30535 7.17586 2.32257 7.2305 2.32213C7.28511 2.32384 7.33877 2.3074 7.38345 2.27527C7.42812 2.24315 7.46139 2.19707 7.47825 2.14397C7.50431 2.07287 7.51601 1.99712 7.51266 1.92127V1.29068C7.50715 1.22549 7.51576 1.15986 7.53789 1.09846L7.55395 1.0797H10.6898C10.7046 1.08431 10.7186 1.09144 10.7311 1.1008C10.7582 1.20786 10.766 1.31908 10.754 1.42899C10.754 1.63294 10.7425 1.83923 10.754 2.04552C10.7567 2.11905 10.7863 2.18889 10.8367 2.24135C10.8872 2.29382 10.9551 2.32513 11.027 2.32917C11.0995 2.32624 11.1682 2.29534 11.2192 2.24271C11.2703 2.19007 11.3 2.11961 11.3022 2.04552C11.3252 1.8111 11.3022 1.56261 11.3022 1.3235C11.2902 1.24464 11.2981 1.16395 11.3252 1.08908C11.3355 1.08463 11.3463 1.08149 11.3573 1.0797Z" fill="#2D5E62"/>
<path d="M11.7587 13.9424L14.4495 11.1809L14.4931 11.2114C14.4931 11.2536 14.4931 11.2958 14.4931 11.338C14.4931 11.8701 14.4931 12.4022 14.4931 12.9367C14.5041 13.0753 14.4855 13.2147 14.4388 13.3453C14.3921 13.4759 14.3182 13.5947 14.2223 13.6933C14.1264 13.792 14.0107 13.8683 13.8832 13.9169C13.7558 13.9656 13.6195 13.9855 13.4838 13.9752H11.7794L11.7587 13.9424Z" fill="#2D5E62"/>
<path d="M3.1427 1.0797C3.1427 0.978901 3.1427 0.8781 3.1427 0.779643C3.14179 0.735649 3.14948 0.691911 3.16532 0.650993C3.18117 0.610076 3.20484 0.572803 3.23497 0.541362C3.2651 0.50992 3.30107 0.484942 3.34076 0.467893C3.38046 0.450844 3.42309 0.442068 3.46615 0.442078C3.55053 0.445138 3.63033 0.482029 3.68828 0.544767C3.74624 0.607505 3.77769 0.691042 3.77583 0.777299C3.77583 0.8781 3.77583 0.978901 3.77583 1.07736C3.76925 1.08486 3.7615 1.09119 3.75289 1.09611C3.54627 1.14861 3.32943 1.14131 3.12665 1.07501L3.1427 1.0797Z" fill="#2D5E62"/>
<path d="M6.92769 1.07734C6.92769 0.978881 6.92769 0.878081 6.92769 0.77728C6.92584 0.691251 6.95736 0.607965 7.01538 0.545601C7.0734 0.483237 7.1532 0.446858 7.23737 0.444402C7.28041 0.443751 7.32314 0.452012 7.36297 0.468688C7.4028 0.485364 7.43892 0.510109 7.46914 0.541432C7.49936 0.572755 7.52307 0.610008 7.53882 0.650944C7.55458 0.69188 7.56206 0.735653 7.56082 0.779624C7.56082 0.87808 7.56082 0.978881 7.56082 1.07968C7.35732 1.14642 7.13962 1.15373 6.93228 1.10078L6.92769 1.07734Z" fill="#2D5E62"/>
<path d="M10.7081 1.07968C10.7081 0.97888 10.7081 0.878079 10.7081 0.779622C10.7072 0.735538 10.715 0.691715 10.731 0.650769C10.747 0.609824 10.7709 0.572595 10.8013 0.541306C10.8317 0.510018 10.868 0.485311 10.9079 0.468661C10.9479 0.452012 10.9907 0.443761 11.0338 0.444401C11.1182 0.447461 11.198 0.484353 11.256 0.54709C11.3139 0.609828 11.3454 0.693365 11.3435 0.779622C11.3435 0.878079 11.3435 0.97888 11.3435 1.07968C11.1326 1.15937 10.9007 1.15937 10.6898 1.07968H10.7081Z" fill="#2D5E62"/>
<path d="M6.9208 1.10044H3.79646C3.79646 1.10044 3.78269 1.08653 3.78499 1.07958C3.78728 1.07263 3.78499 1.06799 3.78499 1.06799H6.30832C6.51478 1.06799 6.72123 1.06799 6.92769 1.06799C6.92769 1.06799 6.92769 1.08422 6.92769 1.09117C6.92769 1.09812 6.9231 1.10044 6.9208 1.10044Z" fill="#182952"/>
<path d="M6.57215 5.60167C6.74031 5.59752 6.90849 5.60929 7.07453 5.63683C7.13423 5.64622 7.18987 5.67351 7.23438 5.71525C7.27889 5.75698 7.31028 5.81127 7.32457 5.87126C7.33841 5.92808 7.33581 5.9878 7.31708 6.04315C7.29834 6.09849 7.26429 6.14709 7.21905 6.18304C7.18443 6.21069 7.14844 6.23651 7.11123 6.26039C6.78828 6.48938 6.54374 6.81612 6.41205 7.1946C6.28037 7.57308 6.26817 7.98424 6.37717 8.37018C6.4864 8.76599 6.71639 9.11585 7.03367 9.36882C7.35095 9.6218 7.73896 9.76469 8.14121 9.77671C8.47759 9.78566 8.81045 9.70486 9.10696 9.54228C9.16568 9.49938 9.23691 9.4781 9.30899 9.48193C9.38108 9.48576 9.44977 9.51448 9.50381 9.56338C9.55298 9.61332 9.58527 9.67798 9.596 9.74797C9.60672 9.81796 9.59532 9.88961 9.56345 9.95252C9.32123 10.6005 8.88119 11.1515 8.30853 11.5239C7.73587 11.8963 7.06105 12.0703 6.38405 12.0201C5.69209 11.9673 5.03656 11.6824 4.51929 11.2098C4.00202 10.7371 3.65197 10.1032 3.52351 9.40632C3.44175 8.96971 3.44938 8.52052 3.54592 8.08708C3.64246 7.65363 3.82581 7.24531 4.08443 6.88787C4.34305 6.53043 4.67132 6.23161 5.04855 6.01024C5.42578 5.78887 5.84379 5.64976 6.27624 5.60167C6.39323 5.60167 6.50563 5.60402 6.57215 5.60167Z" fill="#FEFEFE"/>
<path d="M8.8225 7.00351C8.8225 7.2098 8.82251 7.20746 9.02437 7.2098C9.10176 7.20145 9.18 7.21024 9.25377 7.23559C9.31799 7.26153 9.37198 7.30852 9.40726 7.36918C9.44255 7.42985 9.45714 7.50076 9.44875 7.57081C9.43974 7.64094 9.40833 7.70608 9.35938 7.7561C9.31044 7.80611 9.2467 7.83822 9.17807 7.84743C9.06337 7.86618 8.90968 7.79585 8.84086 7.88025C8.77204 7.96464 8.8248 8.10295 8.81333 8.21547C8.80581 8.294 8.76944 8.36669 8.71154 8.41889C8.65365 8.4711 8.57854 8.49893 8.50135 8.49677C8.42689 8.49215 8.35646 8.4606 8.30266 8.40778C8.24887 8.35495 8.21522 8.28429 8.20773 8.20843C8.19626 8.09591 8.23755 7.94588 8.1802 7.87556C8.12286 7.80523 7.96916 7.86149 7.85676 7.84743C7.7803 7.84146 7.70897 7.80585 7.65736 7.74788C7.60576 7.68992 7.5778 7.61399 7.57919 7.53565C7.57768 7.45469 7.60614 7.37614 7.65889 7.31572C7.71163 7.2553 7.78476 7.21747 7.86364 7.2098C7.97375 7.19808 8.12286 7.25903 8.18709 7.18167C8.25132 7.10431 8.18709 6.97304 8.20544 6.86286C8.21075 6.78161 8.24672 6.70565 8.30578 6.65098C8.36484 6.59632 8.44236 6.56722 8.522 6.56983C8.60132 6.56794 8.67815 6.59818 8.73574 6.65395C8.79332 6.70972 8.82699 6.78651 8.82939 6.86755C8.82939 6.91296 8.82709 6.95834 8.8225 7.00351Z" fill="#FEFEFE"/>
<path d="M3.79418 1.07501V1.1008C3.76666 1.40555 3.79419 1.71264 3.78042 2.01739C3.78444 2.07449 3.77355 2.13166 3.74888 2.18306C3.7242 2.23446 3.68662 2.27825 3.63997 2.30995C3.59332 2.34165 3.53927 2.36013 3.48334 2.36351C3.42742 2.36689 3.37161 2.35503 3.32163 2.32917C3.26587 2.29662 3.22044 2.24839 3.19075 2.1902C3.16106 2.13201 3.14836 2.06633 3.15418 2.00098C3.15418 1.69154 3.15418 1.37976 3.15418 1.06329C3.36696 1.08292 3.58085 1.08684 3.79418 1.07501Z" fill="#FEFEFE"/>
<path d="M6.92081 1.10081V1.06799C7.13844 1.0844 7.35695 1.0844 7.57458 1.06799C7.57458 1.34461 7.57458 1.62123 7.57458 1.8955C7.57458 1.94707 7.57458 1.9963 7.57458 2.04787C7.57398 2.09066 7.56514 2.13292 7.54856 2.17222C7.53198 2.21152 7.50799 2.24709 7.47795 2.27692C7.44792 2.30674 7.41243 2.33022 7.37351 2.34603C7.33459 2.36183 7.29301 2.36965 7.25113 2.36903C7.20907 2.36872 7.16747 2.35991 7.12875 2.34311C7.09003 2.3263 7.05494 2.30183 7.02552 2.27111C6.99609 2.24038 6.97291 2.20401 6.9573 2.16409C6.94169 2.12417 6.93396 2.08148 6.93457 2.03849C6.93457 1.77594 6.93457 1.51574 6.93457 1.25319C6.92998 1.2063 6.9231 1.15707 6.92081 1.10081Z" fill="#FCFCFD"/>
<path d="M10.7058 1.07501C10.9234 1.09142 11.142 1.09142 11.3596 1.07501C11.3596 1.35632 11.3596 1.63762 11.3596 1.91893C11.3596 1.96816 11.3596 2.01973 11.3596 2.06896C11.3549 2.1529 11.3186 2.23173 11.2583 2.28896C11.198 2.34619 11.1184 2.3774 11.0361 2.37605C10.9544 2.37305 10.8768 2.33803 10.8196 2.27826C10.7624 2.21848 10.7299 2.1385 10.7288 2.05489C10.7288 1.90486 10.7288 1.75249 10.7288 1.60246C10.7288 1.45243 10.7081 1.25083 10.7058 1.07501Z" fill="#FCFCFD"/>
</g>
<defs>
<clipPath id="clip0_715_137">
<rect width="14.5" height="13.5378" fill="white" transform="translate(0 0.442078)"/>
</clipPath>
</defs>
</svg>
