<svg width="22" height="20" viewBox="0 0 22 20" fill="none" xmlns="http://www.w3.org/2000/svg">
<path d="M0.0379318 15.157C0.174593 13.7071 1.45221 12.3812 2.92333 12.1527C3.29262 12.105 3.66551 12.0914 4.03729 12.1119C4.22391 12.1171 4.27674 12.0723 4.27272 11.8788C4.24745 10.5891 4.61724 9.42349 5.42802 8.41346C6.23126 7.38903 7.38918 6.70272 8.67345 6.48986C8.79633 6.46804 8.83365 6.4089 8.87442 6.30899C9.61113 4.48128 10.9353 3.3409 12.8703 2.94126C15.7236 2.35097 18.6538 4.41582 19.0815 7.29261C19.2678 8.47216 19.0589 9.68021 18.4872 10.7287C18.6566 10.774 18.822 10.8136 18.9839 10.8625C19.8952 11.1381 20.6874 11.7121 21.2332 12.4922C21.779 13.2723 22.0467 14.2133 21.9934 15.1638C21.8883 17.0949 20.4372 18.732 18.5246 19.0805C18.2571 19.1298 17.9857 19.1547 17.7138 19.1552H6.22215C6.13664 19.1647 6.05007 19.1557 5.96835 19.1288C5.90324 19.1064 5.84766 19.0625 5.81073 19.0044C5.7738 18.9463 5.7577 18.8774 5.76508 18.8089C5.76686 18.7362 5.79495 18.6665 5.84415 18.6129C5.89335 18.5592 5.96033 18.5253 6.03267 18.5172C6.11105 18.509 6.18997 18.507 6.26866 18.5115C10.0776 18.5115 13.8865 18.5115 17.6954 18.5115C19.4789 18.5115 20.9213 17.3407 21.2859 15.6025C21.7263 13.5038 20.1036 11.4108 17.9595 11.339C16.9794 11.3069 15.9975 11.3327 15.0167 11.3264C14.8927 11.3264 14.8611 11.3603 14.8686 11.482C14.8985 12.0404 14.8374 12.5999 14.6877 13.1386C14.6464 13.2902 14.5849 13.4257 14.4058 13.4504C14.137 13.4906 13.9763 13.2781 14.0612 12.9675C14.1895 12.4901 14.2448 11.9961 14.2255 11.5021C14.1646 9.38961 12.5028 7.48266 10.4133 7.1301C7.86267 6.70232 5.54286 8.27852 5.00368 10.805C4.92272 11.1846 4.91353 11.571 4.90779 11.958C4.90779 12.0861 4.9543 12.1119 5.07029 12.1108C5.59282 12.105 6.11592 12.1073 6.63845 12.1108C6.89972 12.1108 7.0404 12.2176 7.04557 12.4168C7.05303 12.6264 6.90489 12.7539 6.64362 12.7545C5.61005 12.7545 4.58164 12.7545 3.55036 12.7545C2.02986 12.7579 0.806795 13.8638 0.654056 15.37C0.507633 16.8124 1.51537 18.1566 2.96812 18.4575C3.16479 18.4976 3.36515 18.5169 3.56587 18.5149C3.97355 18.5119 4.38163 18.5119 4.79008 18.5149C4.97325 18.5149 5.08867 18.6166 5.11106 18.7969C5.13346 18.9772 5.03642 19.1328 4.863 19.1414C3.43495 19.2183 2.02584 19.2183 0.950349 18.0349C0.487895 17.5323 0.175923 16.91 0.0499914 16.2388C0.0413783 16.194 0.0649217 16.1337 0.000610352 16.1096V15.3792C0.0517149 15.3108 -0.00341121 15.2259 0.0379318 15.157Z" fill="#565656"/>
<path d="M0.0378962 15.157C0.0499546 15.2351 0.0625887 15.3126 0 15.3775V15.1627L0.0378962 15.157Z" fill="#656565"/>
<path d="M9.33258 3.94613C9.28337 3.94559 9.23477 3.93515 9.18968 3.91542C9.1446 3.89569 9.10395 3.86707 9.07017 3.83129C8.74631 3.50915 8.42131 3.18817 8.10148 2.86145C7.95333 2.70986 7.95218 2.51692 8.08425 2.38543C8.21632 2.25394 8.40064 2.25853 8.54362 2.39864C8.87666 2.72134 9.20223 3.05209 9.53011 3.38053C9.58116 3.42649 9.61596 3.48774 9.62931 3.55512C9.64266 3.6225 9.63385 3.69239 9.60418 3.75434C9.58139 3.80852 9.54385 3.85522 9.49584 3.88912C9.44782 3.92302 9.39126 3.94277 9.33258 3.94613Z" fill="#565656"/>
<path d="M13.5278 1.02685C13.5278 0.797169 13.5244 0.567486 13.5278 0.341248C13.5318 0.141423 13.6605 0.00533582 13.8362 0.000167942C13.8794 -0.00123265 13.9224 0.00613909 13.9627 0.0218374C14.003 0.0375358 14.0396 0.0612348 14.0705 0.0915036C14.1013 0.121772 14.1257 0.157981 14.1422 0.197944C14.1587 0.237908 14.1669 0.280796 14.1663 0.324019C14.1755 0.794869 14.1755 1.26591 14.1663 1.73715C14.1686 1.78039 14.1618 1.82362 14.1464 1.86408C14.131 1.90453 14.1072 1.9413 14.0767 1.97203C14.0462 2.00275 14.0096 2.02675 13.9693 2.04247C13.9289 2.05818 13.8857 2.06528 13.8425 2.0633C13.6501 2.0633 13.5307 1.9341 13.5261 1.71246C13.5215 1.49081 13.5278 1.25539 13.5278 1.02685Z" fill="#565656"/>
<path d="M20.9494 8.47376C20.7283 8.47376 20.5067 8.47835 20.2856 8.47376C20.0646 8.46916 19.9348 8.34686 19.9342 8.15622C19.9336 7.96559 20.0623 7.83582 20.2833 7.83294C20.74 7.82644 21.1969 7.82644 21.654 7.83294C21.8699 7.83639 22.0025 7.97592 21.9985 8.16368C21.9927 8.34226 21.8635 8.4663 21.6574 8.47204C21.4208 8.47835 21.1854 8.47318 20.9494 8.47376Z" fill="#565656"/>
<path d="M19.7051 2.6197C19.6968 2.72033 19.6504 2.81398 19.5753 2.88154C19.2612 3.19333 18.95 3.50858 18.6342 3.81865C18.4677 3.98172 18.2805 3.98746 18.1444 3.84449C18.0083 3.70151 18.0198 3.53039 18.1766 3.36961C18.4918 3.04806 18.8122 2.73282 19.1292 2.41356C19.1762 2.3587 19.2398 2.32071 19.3104 2.30537C19.381 2.29003 19.4547 2.29818 19.5202 2.32858C19.5761 2.35372 19.6234 2.39469 19.6563 2.44643C19.6891 2.49818 19.7061 2.55842 19.7051 2.6197Z" fill="#565656"/>
<path d="M19.801 10.2842C20.0698 10.3818 20.3718 10.4726 20.6336 10.6448C20.7646 10.731 20.7852 10.8849 20.7048 11.0284C20.6245 11.172 20.501 11.2409 20.3465 11.1857C20.0992 11.0973 19.8562 10.9974 19.6173 10.886C19.46 10.8131 19.4186 10.6667 19.4657 10.5053C19.5082 10.3572 19.6236 10.2917 19.801 10.2842Z" fill="#565656"/>
<path d="M11.7236 2.19536C11.7075 2.36763 11.6484 2.48247 11.502 2.53127C11.3555 2.58008 11.2022 2.54621 11.1322 2.4038C11.0109 2.15476 10.9054 1.89835 10.8164 1.63609C10.7635 1.4822 10.8474 1.35644 10.9886 1.28582C11.1299 1.21519 11.2757 1.23816 11.355 1.36104C11.5284 1.62402 11.6088 1.93008 11.7236 2.19536Z" fill="#565656"/>
<path d="M20.7473 5.44423C20.7433 5.50708 20.7215 5.56748 20.6843 5.61834C20.6472 5.6692 20.5963 5.7084 20.5377 5.73134C20.3281 5.81919 20.1197 5.91107 19.9061 5.99145C19.7166 6.0638 19.5397 5.9949 19.4714 5.83585C19.3979 5.66358 19.4714 5.48558 19.6637 5.40002C19.8779 5.30413 20.0932 5.20996 20.3137 5.13129C20.3633 5.113 20.4166 5.10717 20.4689 5.11432C20.5213 5.12147 20.571 5.14137 20.6139 5.17229C20.6567 5.20321 20.6913 5.24418 20.7145 5.2916C20.7378 5.33903 20.749 5.39144 20.7473 5.44423Z" fill="#565656"/>
<path d="M16.8914 1.61025C16.7881 1.8784 16.7048 2.19823 16.5107 2.46409C16.4229 2.5841 16.2707 2.58468 16.1392 2.51175C16.0727 2.48149 16.0202 2.42697 15.9924 2.35932C15.9647 2.29167 15.9638 2.21599 15.9899 2.1477C16.0765 1.89913 16.1779 1.65599 16.2937 1.41961C16.324 1.35369 16.3782 1.30171 16.4453 1.27412C16.5124 1.24653 16.5875 1.24538 16.6554 1.27089C16.8053 1.31453 16.8794 1.41674 16.8914 1.61025Z" fill="#565656"/>
<path d="M8.24853 5.67219C8.24221 5.93059 8.02976 6.07815 7.80524 5.99776C7.57829 5.91558 7.3556 5.82205 7.13801 5.71755C7.09985 5.7017 7.06523 5.67841 7.03617 5.64904C7.00711 5.61967 6.98418 5.58481 6.96874 5.54649C6.95329 5.50816 6.94562 5.46714 6.9462 5.42583C6.94677 5.38451 6.95556 5.34373 6.97206 5.30585C7.0381 5.14449 7.21668 5.06927 7.39985 5.13875C7.61231 5.21971 7.8196 5.31101 8.03148 5.39772C8.09 5.41812 8.14149 5.45477 8.17993 5.50338C8.21837 5.55199 8.24216 5.61055 8.24853 5.67219Z" fill="#565656"/>
<path d="M9.52148 6.39168C10.2358 4.84763 11.3842 3.86516 13.0368 3.57404C15.5604 3.13133 17.8642 4.7081 18.4051 7.20935C18.6606 8.39107 18.4533 9.50963 17.8412 10.5541C17.8197 10.5979 17.7853 10.6341 17.7425 10.6576C17.6998 10.6812 17.6508 10.6909 17.6023 10.6856C16.7146 10.6816 15.8269 10.6799 14.9391 10.6856C14.8105 10.6856 14.7669 10.6408 14.741 10.5265C14.1967 8.317 12.5332 6.79707 10.2806 6.4537C10.0411 6.41867 9.7971 6.41407 9.52148 6.39168Z" fill="#FEFEFE"/>
</svg>
