<svg width="22" height="14" viewBox="0 0 22 14" fill="none" xmlns="http://www.w3.org/2000/svg">
<path d="M22 8.88861C21.884 9.12995 21.691 9.20471 21.4304 9.20471C14.4786 9.19996 7.5253 9.19854 0.57059 9.20044C0.457392 9.20044 0.341348 9.21112 0.234557 9.15345C0.155284 9.11797 0.0898497 9.05745 0.0483066 8.98118C0.00676349 8.90491 -0.00858931 8.81711 0.00460114 8.73127C0.0105849 8.64133 0.0480297 8.55637 0.110384 8.49128C0.172739 8.42619 0.256017 8.38513 0.345615 8.3753C0.43759 8.36248 0.530419 8.35676 0.623273 8.35821C2.24863 8.35821 3.87399 8.35821 5.49864 8.35821C5.70154 8.35821 5.78342 8.32689 5.8119 8.09266C6.07318 5.96965 7.67362 4.19336 9.75177 3.69287C11.0732 3.37119 12.4679 3.57547 13.6416 4.2626C14.8153 4.94973 15.6762 6.06596 16.0425 7.37573C16.1234 7.62781 16.1726 7.88895 16.1891 8.15317C16.1948 8.33258 16.271 8.3575 16.4262 8.35679C18.0943 8.35181 19.7624 8.35679 21.4304 8.35109C21.691 8.35109 21.8889 8.42228 22 8.6736V8.88861Z" fill="#565656"/>
<path d="M10.9998 11.3412H2.81245C2.40878 11.3412 2.21727 11.2045 2.21655 10.9141C2.21584 10.6236 2.41589 10.4869 2.80889 10.4869C8.2671 10.4869 13.7232 10.4869 19.1771 10.4869C19.2697 10.4855 19.3621 10.4946 19.4526 10.514C19.5484 10.5321 19.6341 10.5851 19.6931 10.6626C19.7521 10.7402 19.7803 10.8369 19.7723 10.934C19.7697 11.0278 19.7351 11.1178 19.6742 11.1892C19.6133 11.2605 19.5299 11.3089 19.4377 11.3263C19.3526 11.3384 19.2666 11.3427 19.1807 11.3391L10.9998 11.3412Z" fill="#565656"/>
<path d="M10.9984 13.4835H5.17539C5.12484 13.4835 5.07501 13.4835 5.02517 13.4835C4.71405 13.4764 4.51044 13.3033 4.51471 13.0499C4.51899 12.7964 4.72046 12.6284 5.03514 12.6284H16.9623C17.351 12.6284 17.5774 12.9061 17.4457 13.2158C17.3538 13.4294 17.1673 13.4842 16.9523 13.4842C16.0928 13.4842 15.2335 13.4842 14.3744 13.4842L10.9984 13.4835Z" fill="#565656"/>
<path d="M10.5691 1.23952C10.5691 0.988914 10.5655 0.741159 10.5691 0.48842C10.5741 0.195813 10.7528 -0.00281754 10.9963 3.02265e-05C11.2397 0.00287799 11.417 0.200085 11.4191 0.498389C11.4234 0.998645 11.4234 1.49938 11.4191 2.00058C11.4191 2.30529 11.254 2.48968 10.9991 2.49324C10.7442 2.4968 10.5719 2.30956 10.5648 1.99488C10.567 1.74001 10.5691 1.49012 10.5691 1.23952Z" fill="#565656"/>
<path d="M4.94541 7.01763C4.94605 7.08051 4.93219 7.14268 4.90488 7.19932C4.87756 7.25596 4.83755 7.30553 4.78795 7.34417C4.73835 7.38282 4.6805 7.4095 4.6189 7.42214C4.5573 7.43477 4.49362 7.43302 4.43281 7.41703C3.89459 7.28247 3.35849 7.13225 2.82667 6.97634C2.77277 6.96174 2.72233 6.93652 2.67831 6.90216C2.63428 6.8678 2.59756 6.82499 2.57031 6.77625C2.54305 6.7275 2.5258 6.67381 2.51958 6.61831C2.51336 6.56281 2.51828 6.50663 2.53407 6.45306C2.5495 6.39986 2.57533 6.35025 2.61005 6.30709C2.64477 6.26393 2.68769 6.22807 2.73634 6.20159C2.785 6.17511 2.83842 6.15854 2.89351 6.15282C2.94861 6.1471 3.00429 6.15236 3.05734 6.16829C3.57943 6.30308 4.10152 6.44547 4.62361 6.59545C4.71908 6.61531 4.80419 6.66893 4.8633 6.74649C4.92241 6.82404 4.95156 6.92031 4.94541 7.01763Z" fill="#565656"/>
<path d="M17.5261 7.4277C17.2741 7.4277 17.0947 7.29244 17.057 7.10306C17.0434 7.05093 17.0403 6.99664 17.0478 6.9433C17.0554 6.88997 17.0734 6.83866 17.1009 6.79232C17.1283 6.74599 17.1647 6.70556 17.2079 6.67336C17.251 6.64116 17.3002 6.61782 17.3524 6.6047C17.7461 6.48225 18.1469 6.37973 18.5449 6.27009C18.6752 6.23378 18.8048 6.19534 18.9372 6.16757C19.1828 6.1156 19.4021 6.23877 19.4605 6.45235C19.476 6.50771 19.4803 6.56565 19.4729 6.62269C19.4656 6.67973 19.4467 6.73469 19.4176 6.78429C19.3885 6.83389 19.3497 6.87709 19.3035 6.91131C19.2572 6.94554 19.2046 6.97007 19.1486 6.98345C18.7115 7.11232 18.2701 7.22551 17.8301 7.34441L17.5261 7.4277Z" fill="#565656"/>
<path d="M4.20221 3.35398C4.20545 3.28568 4.22584 3.21929 4.26149 3.16094C4.29714 3.10259 4.34692 3.05416 4.40622 3.02011C4.46552 2.98607 4.53243 2.9675 4.60079 2.96612C4.66916 2.96475 4.73677 2.98061 4.79739 3.01225C4.89036 3.06556 4.97725 3.12881 5.05654 3.20091C5.40753 3.49494 5.75922 3.78826 6.10523 4.08799C6.32878 4.28164 6.3601 4.54221 6.19422 4.72874C6.02834 4.91527 5.78272 4.92381 5.56273 4.74226C5.16547 4.41406 4.7739 4.07945 4.38162 3.74555C4.32121 3.70062 4.2731 3.64119 4.24175 3.57275C4.21039 3.50431 4.19679 3.42907 4.20221 3.35398Z" fill="#565656"/>
<path d="M17.7924 3.36039C17.7966 3.4346 17.7821 3.50868 17.7502 3.57585C17.7184 3.64302 17.6702 3.70112 17.6101 3.74484C17.2178 4.07874 16.827 4.41406 16.429 4.74155C16.2097 4.92239 15.9598 4.90815 15.7982 4.72233C15.6366 4.53651 15.6658 4.28022 15.878 4.09582C16.2724 3.75409 16.6739 3.42019 17.074 3.08487C17.2235 2.95956 17.393 2.91614 17.5724 3.01367C17.6384 3.04434 17.6942 3.09332 17.7332 3.15478C17.7722 3.21624 17.7927 3.2876 17.7924 3.36039Z" fill="#565656"/>
<path d="M14.9382 1.23382C14.9157 1.31548 14.8886 1.39581 14.8571 1.47446C14.6558 1.91491 14.4522 2.35442 14.2462 2.79297C14.1095 3.08344 13.8903 3.18525 13.6482 3.07775C13.4062 2.97025 13.3392 2.72178 13.4688 2.437C13.6776 1.97614 13.8912 1.51741 14.1095 1.06082C14.2185 0.832287 14.4043 0.739022 14.6079 0.788858C14.7064 0.812554 14.7934 0.870089 14.8538 0.951417C14.9142 1.03275 14.9441 1.1327 14.9382 1.23382Z" fill="#565656"/>
<path d="M8.16911 3.12189C8.08981 3.12033 8.01251 3.09673 7.94587 3.05373C7.87922 3.01073 7.82587 2.95002 7.79178 2.87841C7.55755 2.38005 7.3219 1.88667 7.10049 1.38333C7.05132 1.2817 7.0444 1.16474 7.08122 1.05801C7.11804 0.951287 7.19561 0.863477 7.29698 0.813778C7.51056 0.711258 7.75049 0.790282 7.86653 1.03448C8.1029 1.52073 8.33428 2.01055 8.54786 2.50748C8.5811 2.57204 8.5971 2.64408 8.59431 2.71664C8.59152 2.78919 8.57003 2.8598 8.53193 2.92161C8.49383 2.98342 8.44041 3.03433 8.37684 3.06942C8.31327 3.10451 8.24171 3.12258 8.16911 3.12189Z" fill="#565656"/>
<path d="M10.9956 8.35394H6.91614C6.62211 8.35394 6.62211 8.35394 6.67052 8.06276C6.81463 7.2085 7.20745 6.4157 7.79984 5.78355C8.39222 5.1514 9.15787 4.70797 10.001 4.50875C12.4529 3.92709 14.9176 5.57666 15.3263 8.06845C15.3726 8.35323 15.3726 8.35323 15.0743 8.35323L10.9956 8.35394Z" fill="#FEFEFE"/>
</svg>
