<svg width="24" height="24" viewBox="0 0 24 24" fill="none" xmlns="http://www.w3.org/2000/svg">
<path d="M1 11.8432H1.6617V11.2019H2.30961V11.8321H2.95119V12.4979H2.3188V13.1426H1.67147V12.499H1.0023L1 11.8432Z" fill="#565656" stroke="#565656" stroke-width="0.2"/>
<path d="M12.3604 1C12.3541 1.52992 12.3455 2.05984 12.3409 2.58975C12.338 2.92963 12.3409 3.2695 12.3409 3.61753H11.6918V3.37501C11.6918 2.66185 11.6918 1.94907 11.6918 1.23668C11.6918 1.15798 11.6792 1.0787 11.6729 1H12.3604Z" fill="#565656" stroke="#565656" stroke-width="0.2"/>
<path d="M11.6724 23.386C11.6787 22.8561 11.6867 22.3261 11.6913 21.7962C11.6942 21.4564 11.6913 21.1159 11.6913 20.7679H12.3398V21.011C12.3398 21.7234 12.3398 22.4363 12.3398 23.1487C12.3398 23.228 12.3525 23.3067 12.3588 23.386H11.6724Z" fill="#565656" stroke="#565656" stroke-width="0.2"/>
<path d="M4.25848 12.1877H4.88684C4.95008 14.403 5.79402 16.237 7.42902 17.6787C8.60094 18.7307 10.0972 19.3367 11.6614 19.3926C14.9032 19.5343 17.5581 17.4607 18.5342 15.0443C17.0349 15.9426 15.4631 16.265 13.7862 15.9695C12.1092 15.6739 10.6852 14.8869 9.65845 13.5052C7.78775 10.9886 7.71819 8.31683 9.16002 5.54599C8.18361 5.97802 7.31627 6.62854 6.62302 7.44879C5.92665 8.26839 5.42005 9.23567 5.14037 10.2797L4.53903 10.12C5.1283 7.78167 6.92886 5.13849 11.0491 4.28094C10.9554 4.39287 10.8864 4.47624 10.8163 4.55785C10.1736 5.30813 9.58659 6.09689 9.21809 7.02906C8.19708 9.61452 9.14105 12.7107 11.4234 14.308C13.374 15.6733 16.0559 15.9117 18.2462 14.3768C18.6762 14.0754 19.0775 13.7314 19.4903 13.4061C19.5738 13.3295 19.6681 13.266 19.7702 13.2178C19.7547 13.2831 19.7409 13.3484 19.7237 13.4131C19.4035 14.6205 19.0062 15.7975 18.2767 16.8218C17.0728 18.5124 15.4384 19.5349 13.4338 19.9237C9.33651 20.7189 5.52785 17.9947 4.51201 14.1733C4.33467 13.5271 4.2493 12.8585 4.25848 12.1877Z" fill="#565656" stroke="#565656" stroke-width="0.2"/>
<path d="M11.6183 4.93678C11.6062 4.71292 11.5953 4.5118 11.5844 4.31184C15.9535 3.96206 20.0232 7.77234 19.7611 12.5224C19.7432 12.5324 19.7237 12.5393 19.7036 12.5428C19.1482 12.5603 19.1482 12.5597 19.1287 12.0029C19.0171 8.59782 16.7572 5.82347 13.4792 5.09943C12.9727 4.98808 12.4444 4.98691 11.9224 4.93795C11.8327 4.92862 11.7396 4.93678 11.6183 4.93678Z" fill="#565656" stroke="#565656" stroke-width="0.2"/>
<path d="M4.92365 3.62335H4.28552V2.97743H4.91216V2.3315H5.56293V2.9646H6.19532V3.61869H5.57443V4.2687H4.92365V3.62335Z" fill="#565656" stroke="#565656" stroke-width="0.2"/>
<path d="M3.62667 22.0405H2.98854V21.3992H2.35156V20.7428H2.97475V20.0887H3.62035V20.7271H4.25618V21.3922H3.62667V22.0405Z" fill="#565656" stroke="#565656" stroke-width="0.2"/>
<path d="M18.1612 6.3225L17.776 5.91442L19.5725 4.08681L19.9692 4.49489L18.1612 6.3225Z" fill="#565656" stroke="#565656" stroke-width="0.2"/>
<path d="M23 11.8584V12.4868H20.4325V11.8584H23Z" fill="#565656" stroke="#565656" stroke-width="0.2"/>
<path d="M17.7817 18.3316L18.1698 17.9381L19.9859 19.7844L19.5783 20.1557L17.7817 18.3316Z" fill="#565656" stroke="#565656" stroke-width="0.2"/>
<path d="M4.26025 18.756H4.88056V19.3915H4.26025V18.756Z" fill="#565656" stroke="#565656" stroke-width="0.2"/>
<path d="M4.99951 10.9128C4.96904 11.1378 4.94202 11.3296 4.91385 11.5395L4.27515 11.4812L4.36311 10.8044L4.99951 10.9128Z" fill="#565656" stroke="#565656" stroke-width="0.2"/>
<path d="M2.97182 4.97643V5.6072H2.35266V4.97643H2.97182Z" fill="#565656" stroke="#565656" stroke-width="0.2"/>
</svg>
