<svg width="16" height="16" viewBox="0 0 16 16" fill="none" xmlns="http://www.w3.org/2000/svg">
<path d="M12.6678 9.28875C13.7093 9.27537 14.6571 9.14806 15.5349 8.68002C15.7906 8.54415 16.0292 8.75009 15.9971 9.06515C15.9221 9.87638 15.6981 10.6668 15.3365 11.3968C14.3036 13.445 12.6346 14.7299 10.4559 15.3418C8.07505 16.0104 5.7776 15.7949 3.66256 14.4448C1.69622 13.1893 0.478226 11.3904 0.115556 9.08334C-0.349282 6.12795 0.601789 3.62028 2.72485 1.55071C3.52722 0.770273 4.49755 0.26692 5.5968 0.02193C5.74871 -0.0123043 5.88833 -0.0213954 5.99959 0.108053C6.11085 0.237502 6.0841 0.36374 6.02901 0.501748C5.72571 1.26507 5.70806 2.06529 5.77118 2.86499C5.92095 4.79067 6.72225 6.39541 8.19273 7.65084C9.49898 8.75972 11.0251 9.28393 12.6678 9.28875Z" fill="#565656"/>
<path d="M15.2861 9.51715C15.0901 10.6185 14.597 11.6454 13.86 12.487C12.6041 13.927 10.9983 14.7128 9.12178 14.9695C7.42664 15.2022 5.80533 14.9593 4.32148 14.0874C2.15081 12.8144 0.893766 10.9111 0.679801 8.40133C0.458347 5.8284 1.37519 3.6604 3.26984 1.91124C3.81408 1.41685 4.45637 1.04266 5.15487 0.81307C5.18673 0.804159 5.21905 0.797015 5.25169 0.791672C4.09414 6.45478 9.46199 11.4075 15.2861 9.51715Z" fill="#FEFEFE"/>
</svg>
