<svg width="22" height="21" viewBox="0 0 22 21" fill="none" xmlns="http://www.w3.org/2000/svg">
<path d="M0 15.4966C0.114827 15.2342 0.316344 15.147 0.599392 15.1487C1.88086 15.1584 3.16232 15.1487 4.44608 15.1556C4.58904 15.1556 4.66655 15.1337 4.7188 14.9724C5.17409 13.5542 6.09786 12.3329 7.33855 11.5088C8.57925 10.6846 10.0632 10.3066 11.547 10.4368C12.8454 10.5416 14.0833 11.0308 15.1027 11.8418C16.1222 12.6529 16.877 13.7491 17.2711 14.9908C17.3141 15.124 17.3727 15.159 17.5088 15.1584C18.8258 15.1527 20.1429 15.1544 21.46 15.1556C21.7688 15.1556 21.9715 15.3135 21.9968 15.5661C22.0039 15.6248 21.9992 15.6843 21.9831 15.7412C21.967 15.798 21.9398 15.8512 21.903 15.8974C21.8662 15.9437 21.8206 15.9822 21.7687 16.0106C21.7169 16.0391 21.66 16.057 21.6012 16.0633C21.5228 16.0708 21.444 16.0735 21.3652 16.0713C14.4572 16.0713 7.54851 16.0728 0.639011 16.0759C0.358259 16.0759 0.138367 16.0133 0.000574694 15.7567L0 15.4966Z" fill="#565656"/>
<path d="M10.9936 17.2041H18.4654C18.5512 17.2017 18.637 17.2042 18.7226 17.2115C18.8344 17.2222 18.938 17.2749 19.0126 17.359C19.0872 17.443 19.1271 17.5522 19.1245 17.6645C19.125 17.7727 19.0867 17.8775 19.0166 17.9598C18.9464 18.0421 18.849 18.0964 18.7421 18.1129C18.6849 18.1196 18.6273 18.1219 18.5698 18.1198C13.5251 18.1198 8.47984 18.1198 3.43397 18.1198C3.2801 18.1198 3.13485 18.1066 3.01658 17.9924C2.95152 17.9349 2.90512 17.8594 2.88333 17.7754C2.86154 17.6914 2.86535 17.6028 2.89429 17.521C2.9167 17.4371 2.96457 17.3623 3.03131 17.3067C3.09804 17.2512 3.18035 17.2178 3.2669 17.211C3.35243 17.2037 3.43829 17.201 3.52411 17.2029L10.9936 17.2041Z" fill="#565656"/>
<path d="M10.9953 19.2445H14.8994C14.9995 19.2363 15.1003 19.2464 15.1968 19.2744C15.2866 19.3013 15.3654 19.3565 15.4213 19.4318C15.4771 19.5072 15.5071 19.5986 15.5068 19.6924C15.5118 19.7895 15.4849 19.8855 15.4302 19.9659C15.3754 20.0462 15.2959 20.1064 15.2037 20.1373C15.1143 20.1636 15.0211 20.1742 14.9281 20.1689H7.05039C7.02169 20.1689 6.99298 20.1689 6.96427 20.1689C6.66745 20.1557 6.47683 19.9771 6.47511 19.7096C6.47339 19.442 6.66285 19.2572 6.95738 19.2451C7.09288 19.2399 7.22895 19.2451 7.36502 19.2451L10.9953 19.2445Z" fill="#565656"/>
<path d="M10.532 3.14698V2.56366C10.532 1.89021 10.532 1.21732 10.532 0.544436C10.532 0.21718 10.7117 0.00704816 10.9849 0.000158565C11.2582 -0.00673103 11.4557 0.211441 11.4569 0.547309C11.4569 1.3511 11.4569 2.15086 11.4569 2.95292V3.22678C11.6435 3.03388 11.7813 2.88231 11.9271 2.74107C12.1596 2.51142 12.4341 2.50223 12.6264 2.70318C12.8187 2.90412 12.7986 3.16248 12.5764 3.38697C12.1742 3.7946 11.769 4.19956 11.361 4.60184C11.121 4.83781 10.8684 4.83551 10.6284 4.59839C10.22 4.1965 9.81409 3.79231 9.41067 3.38582C9.18733 3.16076 9.17298 2.89838 9.36302 2.7026C9.55306 2.50682 9.82807 2.51486 10.0623 2.74164C10.2064 2.88116 10.3494 3.02297 10.4912 3.16306C10.4952 3.16478 10.5067 3.15789 10.532 3.14698Z" fill="#606060"/>
<path d="M4.76526 13.2311C4.75952 13.556 4.42078 13.7857 4.1297 13.637C3.76225 13.4504 3.40744 13.2351 3.05951 13.0169C2.85856 12.89 2.82297 12.6322 2.94468 12.4278C3.05951 12.2361 3.29663 12.1327 3.49757 12.2372C3.87535 12.4342 4.24394 12.6529 4.60565 12.8762C4.72507 12.9497 4.76985 13.0869 4.76526 13.2311Z" fill="#606060"/>
<path d="M7.57857 10.361C7.56996 10.5906 7.4758 10.7399 7.28117 10.8122C7.08654 10.8846 6.89535 10.8473 6.7811 10.6802C6.53768 10.3293 6.32412 9.95867 6.14267 9.57211C6.04851 9.36657 6.15645 9.13118 6.35223 9.02553C6.548 8.91989 6.8012 8.95492 6.92636 9.1484C7.14395 9.49288 7.33974 9.84655 7.53896 10.1996C7.56039 10.2511 7.57375 10.3055 7.57857 10.361Z" fill="#606060"/>
<path d="M11.4362 8.80449C11.4362 8.99051 11.4443 9.17653 11.4362 9.3614C11.4357 9.42052 11.4232 9.47892 11.3996 9.53315C11.3761 9.58737 11.3419 9.63631 11.299 9.67706C11.2562 9.71781 11.2056 9.74954 11.1503 9.77037C11.0949 9.7912 11.036 9.8007 10.9769 9.79832C10.9177 9.79847 10.8591 9.7869 10.8044 9.76429C10.7497 9.74168 10.7001 9.70848 10.6583 9.66658C10.6165 9.62468 10.5834 9.57493 10.5609 9.52019C10.5385 9.46545 10.5271 9.40679 10.5274 9.34762C10.5193 8.97673 10.5188 8.6047 10.5274 8.23381C10.5273 8.17464 10.539 8.11605 10.5618 8.06144C10.5845 8.00683 10.6179 7.9573 10.66 7.91573C10.7021 7.87416 10.7521 7.84138 10.807 7.8193C10.8619 7.79722 10.9206 7.78629 10.9798 7.78713C11.0389 7.78497 11.0978 7.79472 11.153 7.81581C11.2082 7.8369 11.2586 7.8689 11.3012 7.90988C11.3438 7.95087 11.3777 8.00001 11.4009 8.05438C11.4241 8.10874 11.4361 8.16723 11.4362 8.22634C11.4443 8.42097 11.4362 8.61445 11.4362 8.80449Z" fill="#606060"/>
<path d="M18.9946 12.7051C18.9987 12.788 18.9789 12.8703 18.9376 12.9423C18.8963 13.0142 18.8352 13.0728 18.7616 13.1111C18.4745 13.2833 18.184 13.4509 17.8889 13.61C17.6431 13.7426 17.3865 13.6674 17.2573 13.4492C17.1281 13.2311 17.1884 12.9716 17.4296 12.8228C17.7218 12.6449 18.0175 12.4715 18.3212 12.3136C18.6444 12.1465 18.9918 12.3567 18.9946 12.7051Z" fill="#606060"/>
<path d="M14.873 10.8518C14.5251 10.8461 14.2879 10.5131 14.4263 10.2301C14.5953 9.89188 14.7835 9.5637 14.9901 9.24714C15.1222 9.04103 15.3748 9.00543 15.5797 9.12543C15.6785 9.17899 15.7526 9.26869 15.7867 9.37573C15.8207 9.48276 15.812 9.59881 15.7623 9.69956C15.5952 10.0222 15.4081 10.3351 15.2209 10.6469C15.1838 10.7066 15.1328 10.7565 15.0722 10.7922C15.0116 10.8279 14.9432 10.8484 14.873 10.8518Z" fill="#606060"/>
<path d="M5.63159 15.1424C6.09549 13.5348 7.84316 11.496 10.661 11.3399C13.5156 11.1814 15.6692 13.0427 16.353 15.1424H5.63159Z" fill="#FEFEFE"/>
</svg>
