<svg width="22" height="18" viewBox="0 0 22 18" fill="none" xmlns="http://www.w3.org/2000/svg">
<path d="M0 17.3502C0.124611 17.0952 0.330189 17.0108 0.608122 17.0125C1.87548 17.0211 3.14283 17.0125 4.41018 17.02C4.58245 17.02 4.62093 16.9924 4.57441 16.8092C3.63495 13.091 6.11338 9.3188 9.90281 8.69115C11.5956 8.40914 13.3317 8.7961 14.7445 9.77031C16.1572 10.7445 17.1361 12.2297 17.4742 13.9122C17.676 14.9008 17.6471 15.9226 17.3898 16.8982C17.3812 16.9315 17.3737 16.9654 17.3611 17.0194H17.6068C18.8667 17.0194 20.1268 17.0194 21.3871 17.0194C21.4797 17.0164 21.5723 17.0251 21.6627 17.0452C21.761 17.0688 21.8482 17.1255 21.9096 17.2059C21.971 17.2862 22.0028 17.3852 21.9998 17.4862C22.0016 17.5873 21.9683 17.6859 21.9054 17.7651C21.8426 17.8443 21.7541 17.8992 21.6553 17.9204C21.5714 17.9376 21.4859 17.9451 21.4003 17.9428C14.4711 17.9428 7.54057 17.9441 0.608697 17.9468C0.330764 17.9468 0.125758 17.8635 0.000573051 17.6103L0 17.3502Z" fill="#565656"/>
<path d="M11.1288 0C11.257 0.0754643 11.3731 0.169732 11.4733 0.279656C11.8414 0.650617 12.2135 1.01756 12.5816 1.38852C12.8073 1.61821 12.8228 1.90074 12.6258 2.09082C12.4289 2.28089 12.163 2.26309 11.9408 2.0443C11.7943 1.89902 11.6571 1.74512 11.5141 1.59295C11.4337 1.66301 11.4641 1.73134 11.4641 1.78934C11.4613 2.60649 11.4641 3.42306 11.4641 4.24021C11.4641 4.55776 11.312 4.75702 11.0622 4.78286C10.7532 4.81617 10.5454 4.606 10.5413 4.25112C10.5379 3.44143 10.5413 2.63175 10.5413 1.82207C10.5413 1.75431 10.5632 1.68253 10.5109 1.59984C10.3559 1.75603 10.2089 1.90878 10.0567 2.05579C9.83847 2.26596 9.57891 2.27802 9.38883 2.09311C9.19876 1.90821 9.19589 1.62913 9.41238 1.40862C9.82392 0.98942 10.2387 0.574051 10.6568 0.162511C10.726 0.103059 10.7995 0.0487445 10.8767 0H11.1288Z" fill="#565656"/>
<path d="M4.7738 11.4016C4.77954 11.7404 4.43901 11.9758 4.13237 11.8236C3.76945 11.6399 3.41973 11.4286 3.07576 11.2115C2.87018 11.0811 2.83056 10.8296 2.94886 10.6218C3.06026 10.4254 3.29914 10.3191 3.5007 10.4236C3.88085 10.6206 4.24722 10.8417 4.61416 11.0656C4.72728 11.1363 4.77495 11.2638 4.7738 11.4016Z" fill="#565656"/>
<path d="M2.72248 15.7256C2.52953 15.7256 2.33601 15.7337 2.14364 15.7256C2.08441 15.7254 2.02583 15.7134 1.97133 15.6902C1.91684 15.667 1.86754 15.6331 1.82633 15.5906C1.78513 15.548 1.75285 15.4977 1.73141 15.4424C1.70997 15.3872 1.69979 15.3283 1.70147 15.2691C1.70071 15.2098 1.71174 15.1509 1.73391 15.0959C1.75608 15.0409 1.78895 14.9909 1.83062 14.9487C1.87228 14.9065 1.92192 14.873 1.97664 14.8501C2.03136 14.8272 2.09008 14.8154 2.14938 14.8154C2.53604 14.807 2.92231 14.807 3.3082 14.8154C3.42813 14.8151 3.54333 14.8622 3.62872 14.9464C3.71411 15.0306 3.76279 15.1452 3.76415 15.2651C3.76817 15.5114 3.58384 15.7055 3.32371 15.7279C3.30935 15.7279 3.295 15.7279 3.28064 15.7279H2.72248V15.7256Z" fill="#565656"/>
<path d="M7.5891 8.5522C7.57704 8.76294 7.49033 8.91856 7.29566 8.99264C7.10099 9.06672 6.89369 9.03111 6.77884 8.85195C6.55546 8.50741 6.34758 8.14621 6.15636 7.78041C6.04955 7.57656 6.1443 7.3371 6.33438 7.22053C6.52445 7.10396 6.78975 7.11774 6.91206 7.30609C7.14176 7.66384 7.34619 8.04169 7.55694 8.41323C7.57478 8.45761 7.58563 8.50449 7.5891 8.5522Z" fill="#565656"/>
<path d="M11.4401 6.99598C11.4401 7.18204 11.4487 7.36867 11.4401 7.55357C11.4375 7.66933 11.3892 7.77935 11.3057 7.85954C11.2222 7.93972 11.1103 7.98354 10.9945 7.98138C10.9354 7.98337 10.8765 7.97356 10.8213 7.95251C10.766 7.93146 10.7155 7.89961 10.6728 7.85881C10.63 7.818 10.5958 7.76908 10.5721 7.71489C10.5485 7.66071 10.5359 7.60235 10.5351 7.54324C10.5248 7.16424 10.5248 6.78505 10.5351 6.40566C10.5358 6.34653 10.5484 6.28813 10.572 6.23391C10.5956 6.17969 10.6298 6.13073 10.6726 6.08992C10.7154 6.0491 10.7659 6.01724 10.8212 5.99623C10.8765 5.97521 10.9354 5.96545 10.9945 5.96752C11.0519 5.9663 11.1089 5.9764 11.1623 5.99725C11.2158 6.0181 11.2646 6.04928 11.306 6.08902C11.3474 6.12875 11.3805 6.17626 11.4036 6.22882C11.4266 6.28138 11.439 6.33796 11.4401 6.39533C11.4493 6.59459 11.4401 6.79557 11.4401 6.99598Z" fill="#565656"/>
<path d="M19.186 15.7245C19.008 15.7245 18.8288 15.7331 18.6514 15.7245C18.5923 15.7235 18.534 15.7106 18.4799 15.6867C18.4258 15.6627 18.3771 15.6282 18.3366 15.5851C18.2962 15.542 18.2648 15.4912 18.2442 15.4358C18.2237 15.3803 18.2146 15.3213 18.2173 15.2622C18.2176 15.1464 18.2629 15.0352 18.3435 14.952C18.4241 14.8688 18.5339 14.8201 18.6497 14.816C19.013 14.8053 19.3767 14.8053 19.7407 14.816C19.7999 14.818 19.8581 14.8316 19.912 14.856C19.966 14.8805 20.0145 14.9153 20.055 14.9586C20.0954 15.0019 20.1269 15.0527 20.1477 15.1081C20.1684 15.1636 20.1781 15.2226 20.176 15.2818C20.1751 15.3974 20.1294 15.5083 20.0484 15.5909C19.9674 15.6735 19.8575 15.7214 19.7419 15.7245C19.5575 15.7331 19.3715 15.7245 19.186 15.7245Z" fill="#565656"/>
<path d="M19.0034 10.8888C19.0086 10.9717 18.9896 11.0544 18.9489 11.1269C18.9081 11.1993 18.8473 11.2584 18.7737 11.2971C18.4785 11.4693 18.1839 11.6462 17.8825 11.8076C17.8296 11.8379 17.7712 11.8573 17.7107 11.8646C17.6502 11.8718 17.5888 11.8667 17.5303 11.8497C17.4718 11.8326 17.4173 11.8039 17.3702 11.7653C17.3231 11.7267 17.2842 11.679 17.256 11.625C17.1365 11.4033 17.2014 11.1575 17.4357 11.014C17.7274 10.8354 18.0231 10.6625 18.3263 10.5029C18.6433 10.3323 18.9948 10.5414 19.0034 10.8888Z" fill="#565656"/>
<path d="M15.8215 7.75227C15.6233 8.14734 15.4459 8.61765 15.0749 8.96334C14.9262 9.10174 14.7206 9.05809 14.5627 8.92602C14.4048 8.79394 14.333 8.61593 14.4238 8.427C14.5928 8.06594 14.7926 7.72012 15.021 7.39336C15.1358 7.23315 15.3133 7.1987 15.5022 7.27392C15.6911 7.34915 15.8037 7.48122 15.8215 7.75227Z" fill="#565656"/>
<path d="M10.9778 17.0165C9.2453 17.0165 7.51281 17.0165 5.78089 17.02C5.62355 17.02 5.56211 16.9735 5.51674 16.823C4.54914 13.5986 6.72265 10.1216 10.0343 9.59847C13.1036 9.11323 15.9214 11.0341 16.5698 14.0655C16.7623 14.9895 16.7228 15.9467 16.4549 16.8517C16.4159 16.989 16.3498 17.02 16.2149 17.0194C14.4703 17.0148 12.7246 17.0139 10.9778 17.0165Z" fill="#FEFEFE"/>
</svg>
